<svg viewBox="0 0 512 512" xmlns="http://www.w3.org/2000/svg"><linearGradient gradientTransform="matrix(1 0 0 -1 -41.66 349.04)" gradientUnits="userSpaceOnUse" id="a" x1="97.442" x2="513.183" y1="293.259" y2="-122.482"><stop offset="0" stop-color="#FFFFFF"/><stop offset="1" stop-color="#FFFFFF"/></linearGradient><path d="M348.49 35.51H163.512c-70.692 0-128 57.308-128 128v184.98c0 70.692 57.308 128 128 128h97.09V312.53h-55.54V243.1h55.54v-41.656c0-57.194 32.285-97.2 83.314-97.2h55.542v69.43h-27.77c-27.744 0-41.658 13.884-41.658 41.656v27.77h69.428l-13.886 69.43H330.03v163.96h18.46c70.692 0 128-57.308 128-128V163.51c0-70.69-57.307-128-128-128z" fill="url(#a)"/></svg>
